PathFileType	4	(x/y/z)	S02_PSF_T06
DataRate	CameraRate	NumFrames	NumMarkers	Units	OrigDataRate	OrigDataStartFrame	OrigNumFrames
240	240	11	51	mm	240	255	407
Frame#	Time	Sternum			R.Acromium			L.Acromium			Top.Head			R.ASIS			L.ASIS			R.PSIS			L.PSIS			R.Great.Tro			L.Great.Tro			R.Iliac.Crest			L.Iliac.Crest			V.Sacral			R.Thigh.Upper.Post			R.Thigh.Lower.Ant			R.Thigh.Lower.Post			R.Thigh.Upper.Ant			R.Knee.Lat			R.Knee.Med			R.Shank.Upper.Post			R.Shank.Lower.Ant			R.Shank.Lower.Post			R.Shank.Upper.Ant			R.Ankle.Lat			R.Ankle.Med			R.Heel.Upper			R.Heel.Med			R.Heel.Lat			R.Toe.Lat			R.Toe.Med			R.Toe.Tip			L.Thigh.Upper.Post			L.Thigh.Lower.Ant			L.Thigh.Lower.Post			L.Thigh.Upper.Ant			L.Knee.Lat			L.Knee.Med			L.Shank.Upper.Post			L.Shank.Lower.Ant			L.Shank.Lower.Post			L.Shank.Upper.Ant			L.Ankle.Lat			L.Ankle.Med			L.Heel.Upper			L.Heel.Med			L.Heel.Lat			L.Toe.Lat			L.Toe.Med			L.Toe.Tip			Cervical.Spine			Back			
		X1	Y1	Z1	X2	Y2	Z2	X3	Y3	Z3	X4	Y4	Z4	X5	Y5	Z5	X6	Y6	Z6	X7	Y7	Z7	X8	Y8	Z8	X9	Y9	Z9	X10	Y10	Z10	X11	Y11	Z11	X12	Y12	Z12	X13	Y13	Z13	X14	Y14	Z14	X15	Y15	Z15	X16	Y16	Z16	X17	Y17	Z17	X18	Y18	Z18	X19	Y19	Z19	X20	Y20	Z20	X21	Y21	Z21	X22	Y22	Z22	X23	Y23	Z23	X24	Y24	Z24	X25	Y25	Z25	X26	Y26	Z26	X27	Y27	Z27	X28	Y28	Z28	X29	Y29	Z29	X30	Y30	Z30	X31	Y31	Z31	X32	Y32	Z32	X33	Y33	Z33	X34	Y34	Z34	X35	Y35	Z35	X36	Y36	Z36	X37	Y37	Z37	X38	Y38	Z38	X39	Y39	Z39	X40	Y40	Z40	X41	Y41	Z41	X42	Y42	Z42	X43	Y43	Z43	X44	Y44	Z44	X45	Y45	Z45	X46	Y46	Z46	X47	Y47	Z47	X48	Y48	Z48	X49	Y49	Z49	X50	Y50	Z50	X51	Y51	Z51	

255	1.0583	69.416	1053.2	314.78	-23.277	1293	458.89	-45.883	1298.3	167.15	-10.635	1586.9	316.98	32.017	892.23	428.69	52.119	888.7	218	-174.78	935.76	350.78	-175.21	941.1	276.79	-70.898	779.41	511.94	-48.476	787.36	118.45	-79.464	933.04	476.58	-67.378	936.81	140.17	-202.26	894.3	305.92	-129.83	582.12	486.73	-104.66	491.16	446.49	-174.16	505.49	465.06	-64.88	569.22	466.33	-190.08	426.43	447.59	-206.55	421.67	303.56	-353.16	274.16	431.73	-322.36	169.26	409.65	-379.58	205.43	420.68	-293.67	231.18	428.02	-405.96	113.57	405.37	-397.48	126.64	320.24	-474.63	109.11	351.27	-467.26	76.035	322.65	-476.93	76.801	386.34	-321.34	37.724	426.47	-289.86	32.39	319.11	-240.3	54.627	374.09	20.666	568.4	140.81	123.34	531.01	155.4	57.564	488.47	166.43	77.095	611.05	130.48	141.59	453.96	165.04	130.4	448.74	306.07	125.65	265.89	167.51	223.76	213.44	180.5	152.69	197.85	183.76	189.53	280.15	164.87	228.11	102.44	192.12	242.63	106.26	274.18	187.46	54.019	226.89	203.14	34.292	262.97	203.06	27.286	201.48	359.99	74.038	171.78	371.91	100.24	278.1	421.51	135.51	230.78	-110.58	1359.3	323.35	-189.76	1107.4	333.72
256	1.0625	75.544	1052.3	314.17	-17.456	1292.1	458	-39.841	1297.3	166.21	-4.9502	1586.1	315.9	38.204	891.32	428.35	58.47	888.04	217.56	-168.67	934.59	350.47	-169.18	940.03	276.5	-64.733	778.23	511.65	-41.863	787.02	118.04	-73.321	932.02	476.25	-61.243	936.07	139.79	-196	893.05	305.57	-123.89	581.12	486.35	-98.624	490.07	446.28	-168.17	504.46	464.63	-58.893	568.15	466.12	-184.23	425.42	447.35	-200.38	420.54	303.28	-349.21	275.32	431.73	-320.1	169.94	409.94	-376.67	206.95	420.88	-290.47	231.52	428.13	-404.36	115.29	405.83	-395.68	128.32	320.77	-472.97	111.98	351.84	-466.14	78.976	323.02	-475.82	79.54	386.72	-321.06	37.702	426.6	-289.83	32.426	319.2	-240.25	54.413	374.04	27.836	568.1	140.72	130.53	530.93	155.5	64.839	488.25	166.46	84.117	610.84	130.43	148.82	453.75	165.22	137.94	448.91	305.92	130.98	265.88	167.56	228.3	212.14	181.19	157.02	197.47	183.9	195.05	279.3	165.42	230.87	101.52	192.53	245.06	104.75	274.76	189.09	54.514	227.09	203.96	34.18	263.1	204.01	27.584	201.53	362.11	70.67	172.72	374.14	96.146	279.22	424.75	130.38	232.24	-104.73	1358.5	322.31	-183.69	1106.4	333.11
257	1.0667	81.693	1051.5	313.56	-11.639	1291.4	457.12	-33.784	1296.3	165.26	0.73478	1585.3	314.81	44.442	890.46	427.97	64.833	887.49	217.11	-162.52	933.5	350.2	-163.12	939.06	276.24	-58.518	777.08	511.34	-35.213	786.79	117.59	-67.088	931.05	475.95	-55.099	935.43	139.41	-189.71	891.88	305.25	-117.82	580.15	485.94	-92.42	489.02	446.06	-162.03	503.42	464.18	-52.769	567.13	465.9	-178.18	424.41	447.12	-194.01	419.39	303.01	-345.08	276.56	431.73	-317.69	170.72	410.27	-373.58	208.58	421.08	-287.1	231.93	428.28	-402.6	117.13	406.32	-393.67	130.09	321.33	-471.1	115.05	352.43	-464.86	82.13	323.39	-474.55	82.49	387.1	-320.74	37.706	426.75	-289.8	32.483	319.3	-240.18	54.19	374	34.947	567.88	140.63	137.65	530.9	155.6	72.038	488.09	166.5	91.093	610.69	130.38	155.99	453.61	165.39	145.4	449.15	305.77	136.25	265.96	167.63	232.75	210.92	181.85	161.27	197.21	184.07	200.49	278.53	165.96	233.47	100.69	192.92	247.38	103.33	275.31	190.57	55.09	227.3	204.66	34.166	263.23	204.8	27.97	201.6	364.01	67.35	173.57	376.22	92.1	280.24	427.82	125.26	233.56	-98.878	1357.7	321.26	-177.6	1105.6	332.49
258	1.0708	87.86	1050.8	312.95	-5.8235	1290.8	456.25	-27.716	1295.4	164.31	6.421	1584.7	313.72	50.723	889.64	427.56	71.203	887.05	216.63	-156.33	932.49	349.97	-157.04	938.17	276.03	-52.256	775.95	511.01	-28.525	786.66	117.12	-60.768	930.14	475.66	-48.945	934.92	139.04	-183.4	890.8	304.96	-111.63	579.2	485.51	-86.037	488	445.84	-155.71	502.39	463.72	-46.502	566.16	465.67	-171.92	423.4	446.91	-187.44	418.23	302.75	-340.76	277.89	431.73	-315.12	171.59	410.65	-370.32	210.31	421.28	-283.57	232.41	428.46	-400.69	119.08	406.83	-391.43	131.96	321.93	-469	118.33	353.04	-463.4	85.503	323.77	-473.11	85.659	387.48	-320.39	37.745	426.9	-289.77	32.565	319.41	-240.11	53.956	373.95	41.995	567.74	140.55	144.69	530.93	155.69	79.156	488.01	166.55	98.018	610.6	130.31	163.09	453.54	165.56	152.77	449.46	305.64	141.45	266.14	167.72	237.11	209.79	182.49	165.45	197.06	184.25	205.86	277.85	166.47	235.94	99.934	193.31	249.58	102.04	275.83	191.92	55.729	227.54	205.27	34.244	263.37	205.46	28.428	201.68	365.71	64.109	174.32	378.17	88.14	281.15	430.71	120.2	234.73	-93.023	1357.1	320.18	-171.48	1104.8	331.86
259	1.075	94.042	1050.3	312.32	-0.0092147	1290.2	455.38	-21.64	1294.6	163.35	12.11	1584.1	312.62	57.044	888.88	427.12	77.577	886.7	216.14	-150.1	931.57	349.78	-150.93	937.39	275.84	-45.951	774.85	510.67	-21.803	786.63	116.6	-54.363	929.3	475.39	-42.784	934.51	138.67	-177.06	889.82	304.71	-105.29	578.28	485.06	-79.466	487.01	445.63	-149.22	501.36	463.26	-40.088	565.25	465.43	-165.44	422.39	446.72	-180.65	417.05	302.51	-336.24	279.3	431.73	-312.38	172.57	411.07	-366.86	212.15	421.49	-279.86	232.96	428.68	-398.59	121.15	407.36	-388.94	133.94	322.57	-466.65	121.81	353.66	-461.73	89.102	324.15	-471.48	89.057	387.87	-320	37.826	427.07	-289.71	32.68	319.53	-240.03	53.709	373.91	48.974	567.67	140.47	151.67	531	155.76	86.19	488	166.6	104.89	610.58	130.23	170.13	453.55	165.72	160.04	449.83	305.51	146.58	266.43	167.8	241.38	208.75	183.08	169.55	197.03	184.42	211.15	277.25	166.94	238.27	99.267	193.66	251.69	100.86	276.3	193.17	56.413	227.77	205.79	34.403	263.5	206.01	28.944	201.76	367.24	60.981	174.97	379.99	84.301	281.95	433.42	115.24	235.76	-87.165	1356.5	319.1	-165.35	1104.1	331.23
260	1.0792	100.23	1049.8	311.69	5.8053	1289.8	454.52	-15.559	1293.8	162.39	17.801	1583.6	311.52	63.399	888.16	426.64	83.948	886.46	215.64	-143.82	930.74	349.63	-144.8	936.7	275.69	-39.606	773.77	510.31	-15.051	786.71	116.06	-47.879	928.52	475.15	-36.619	934.21	138.3	-170.71	888.95	304.48	-98.811	577.39	484.58	-72.699	486.06	445.43	-142.53	500.34	462.79	-33.522	564.41	465.19	-158.71	421.38	446.56	-173.63	415.85	302.3	-331.51	280.78	431.73	-309.45	173.65	411.55	-363.18	214.11	421.72	-275.94	233.59	428.95	-396.3	123.34	407.92	-386.2	136.03	323.25	-464.04	125.49	354.29	-459.84	92.93	324.54	-469.64	92.691	388.26	-319.57	37.957	427.25	-289.64	32.835	319.67	-239.92	53.446	373.88	55.885	567.69	140.39	158.57	531.12	155.81	93.14	488.06	166.65	111.71	610.62	130.13	177.11	453.64	165.86	167.18	450.26	305.39	151.65	266.82	167.88	245.56	207.82	183.62	173.58	197.11	184.58	216.36	276.74	167.38	240.47	98.685	194	253.68	99.798	276.73	194.32	57.124	228.01	206.26	34.632	263.64	206.48	29.5	201.84	368.59	57.991	175.54	381.69	80.614	282.65	435.96	110.43	236.67	-81.305	1356	318.02	-159.2	1103.5	330.59
261	1.0833	106.43	1049.5	311.04	11.621	1289.4	453.67	-9.4773	1293.2	161.44	23.497	1583.3	310.42	69.78	887.49	426.13	90.313	886.31	215.12	-137.51	930	349.5	-138.64	936.12	275.58	-33.226	772.72	509.93	-8.2764	786.9	115.5	-41.323	927.81	474.92	-30.451	934.03	137.94	-164.34	888.19	304.28	-92.186	576.52	484.09	-65.729	485.15	445.24	-135.65	499.31	462.33	-26.799	563.63	464.94	-151.75	420.36	446.44	-166.36	414.63	302.13	-326.55	282.36	431.74	-306.3	174.83	412.08	-359.28	216.17	421.96	-271.82	234.3	429.27	-393.79	125.66	408.5	-383.19	138.21	323.96	-461.13	129.39	354.94	-457.71	96.992	324.93	-467.57	96.566	388.67	-319.08	38.15	427.44	-289.53	33.038	319.81	-239.78	53.163	373.86	62.723	567.78	140.29	165.4	531.31	155.82	100.01	488.2	166.68	118.46	610.73	130.01	184.03	453.8	165.99	174.19	450.75	305.26	156.65	267.31	167.93	249.63	206.98	184.12	177.51	197.31	184.72	221.49	276.31	167.77	242.55	98.188	194.3	255.57	98.863	277.11	195.39	57.847	228.24	206.68	34.919	263.76	206.88	30.083	201.91	369.81	55.163	176.02	383.26	77.105	283.27	438.31	105.81	237.45	-75.445	1355.6	316.93	-153.04	1103	329.95
262	1.0875	112.63	1049.3	310.4	17.438	1289.1	452.82	-3.3976	1292.7	160.49	29.198	1583	309.31	76.18	886.89	425.6	96.667	886.26	214.59	-131.17	929.36	349.41	-132.45	935.65	275.49	-26.815	771.7	509.53	-1.4866	787.19	114.91	-34.703	927.19	474.72	-24.285	933.95	137.57	-157.97	887.54	304.11	-85.411	575.68	483.58	-58.551	484.28	445.08	-128.56	498.28	461.88	-19.918	562.92	464.7	-144.54	419.35	446.37	-158.84	413.38	302	-321.34	284	431.77	-302.93	176.11	412.67	-355.13	218.34	422.22	-267.47	235.08	429.64	-391.06	128.1	409.11	-379.9	140.5	324.71	-457.92	133.5	355.6	-455.32	101.29	325.33	-465.24	100.69	389.08	-318.53	38.415	427.65	-289.39	33.299	319.96	-239.61	52.859	373.84	69.488	567.95	140.18	172.15	531.55	155.8	106.79	488.41	166.7	125.16	610.91	129.86	190.9	454.03	166.1	181.08	451.28	305.13	161.56	267.9	167.95	253.6	206.22	184.56	181.36	197.61	184.81	226.52	275.96	168.11	244.5	97.772	194.57	257.35	98.05	277.44	196.36	58.568	228.45	207.07	35.25	263.88	207.24	30.679	201.99	370.88	52.517	176.42	384.7	73.794	283.81	440.48	101.41	238.13	-69.584	1355.2	315.84	-146.88	1102.6	329.31
263	1.0917	118.83	1049.2	309.74	23.257	1289	451.98	2.6769	1292.2	159.54	34.904	1582.8	308.2	82.591	886.34	425.03	103.01	886.31	214.05	-124.8	928.82	349.34	-126.25	935.28	275.42	-20.378	770.72	509.11	5.3081	787.59	114.31	-28.028	926.64	474.53	-18.123	933.98	137.21	-151.59	887	303.96	-78.482	574.87	483.07	-51.158	483.45	444.94	-121.27	497.25	461.45	-12.875	562.29	464.46	-137.07	418.33	446.35	-151.05	412.09	301.93	-315.88	285.73	431.82	-299.32	177.5	413.32	-350.73	220.62	422.49	-262.89	235.94	430.06	-388.09	130.66	409.74	-376.32	142.89	325.48	-454.38	137.81	356.27	-452.65	105.82	325.75	-462.64	105.06	389.51	-317.91	38.765	427.87	-289.19	33.627	320.12	-239.39	52.529	373.85	76.177	568.2	140.04	178.83	531.84	155.74	113.49	488.69	166.69	131.79	611.16	129.69	197.71	454.33	166.19	187.83	451.87	304.99	166.39	268.56	167.92	257.45	205.56	184.95	185.1	198.01	184.87	231.45	275.69	168.39	246.34	97.432	194.82	259.01	97.352	277.73	197.26	59.274	228.65	207.43	35.615	263.98	207.55	31.275	202.05	371.84	50.068	176.75	386.03	70.695	284.27	442.47	97.258	238.71	-63.727	1355	314.76	-140.71	1102.3	328.67
264	1.0958	125.02	1049.1	309.07	29.076	1288.9	451.14	8.7431	1291.9	158.6	40.615	1582.7	307.1	89.006	885.86	424.44	109.33	886.45	213.5	-118.41	928.37	349.29	-120.03	935.01	275.38	-13.921	769.78	508.67	12.096	788.1	113.7	-21.308	926.18	474.35	-11.97	934.11	136.84	-145.21	886.57	303.82	-71.4	574.09	482.56	-43.55	482.66	444.85	-113.77	496.21	461.06	-5.671	561.73	464.24	-129.35	417.31	446.39	-142.99	410.76	301.93	-310.16	287.53	431.89	-295.46	178.99	414.03	-346.07	223	422.8	-258.06	236.87	430.55	-384.85	133.35	410.4	-372.45	145.39	326.29	-450.5	142.32	356.96	-449.67	110.59	326.18	-459.75	109.68	389.96	-317.2	39.214	428.1	-288.93	34.034	320.3	-239.11	52.17	373.87	82.786	568.51	139.88	185.43	532.18	155.63	120.1	489.03	166.65	138.36	611.46	129.48	204.46	454.68	166.27	194.46	452.51	304.85	171.11	269.28	167.84	261.18	204.97	185.29	188.74	198.49	184.87	236.26	275.47	168.63	248.05	97.164	195.03	260.56	96.763	277.97	198.08	59.956	228.83	207.76	36.002	264.08	207.83	31.862	202.11	372.68	47.824	177.02	387.24	67.818	284.68	444.29	93.371	239.22	-57.873	1354.9	313.69	-134.54	1102	328.04
265	1.1	131.19	1049.2	308.4	34.896	1288.9	450.3	14.799	1291.6	157.68	46.333	1582.7	305.99	95.416	885.45	423.83	115.63	886.69	212.94	-112.01	928.02	349.26	-113.79	934.84	275.36	-7.4477	768.88	508.2	18.865	788.71	113.09	-14.556	925.82	474.19	-5.8285	934.33	136.48	-138.83	886.24	303.7	-64.165	573.33	482.06	-35.725	481.93	444.81	-106.06	495.18	460.7	1.6931	561.24	464.03	-121.38	416.29	446.5	-134.63	409.39	302	-304.16	289.4	431.99	-291.33	180.58	414.79	-341.12	225.47	423.13	-252.97	237.88	431.09	-381.34	136.16	411.08	-368.28	147.99	327.13	-446.25	147.03	357.67	-446.38	115.59	326.62	-456.54	114.55	390.43	-316.41	39.776	428.35	-288.6	34.532	320.48	-238.77	51.78	373.91	89.309	568.89	139.69	191.93	532.58	155.48	126.61	489.44	166.57	144.85	611.82	129.23	211.16	455.09	166.32	200.97	453.18	304.68	175.72	270.05	167.7	264.78	204.45	185.57	192.27	199.03	184.82	240.95	275.31	168.81	249.64	96.96	195.22	262	96.275	278.17	198.83	60.604	228.99	208.08	36.401	264.16	208.08	32.429	202.16	373.43	45.79	177.24	388.33	65.167	285.04	445.93	89.76	239.66	-52.026	1354.8	312.62	-128.39	1101.9	327.4
